<svg width="24" height="25" viewBox="0 0 24 25" fill="none" xmlns="http://www.w3.org/2000/svg">
<g id="Group">
<path id="Vector" d="M3.63605 11.7927C3.44858 11.9802 3.34326 12.2345 3.34326 12.4997C3.34326 12.7648 3.44858 13.0191 3.63605 13.2067L9.29305 18.8637C9.3853 18.9592 9.49564 19.0353 9.61764 19.0878C9.73965 19.1402 9.87087 19.1678 10.0036 19.1689C10.1364 19.1701 10.2681 19.1448 10.391 19.0945C10.5139 19.0442 10.6256 18.9699 10.7194 18.8761C10.8133 18.7822 10.8876 18.6705 10.9379 18.5476C10.9882 18.4247 11.0135 18.293 11.0123 18.1603C11.0111 18.0275 10.9836 17.8963 10.9312 17.7743C10.8787 17.6522 10.8026 17.5419 10.707 17.4497L6.75705 13.4997L20 13.4997C20.2653 13.4997 20.5196 13.3943 20.7072 13.2068C20.8947 13.0192 21 12.7649 21 12.4997C21 12.2344 20.8947 11.9801 20.7072 11.7925C20.5196 11.605 20.2653 11.4997 20 11.4997L6.75705 11.4997L10.707 7.54965C10.8892 7.36105 10.99 7.10845 10.9877 6.84625C10.9854 6.58406 10.8803 6.33324 10.6949 6.14784C10.5095 5.96243 10.2586 5.85726 9.99645 5.85498C9.73425 5.8527 9.48165 5.9535 9.29305 6.13565L3.63605 11.7927Z" fill="white"/>
</g>
</svg>
