<svg width="45" height="44" viewBox="0 0 45 44" fill="none" xmlns="http://www.w3.org/2000/svg">
<g id="Crown">
<path id="Vector" d="M32.8904 7.49676C33.7211 7.09113 34.2964 6.2352 34.2964 5.24176C34.2964 4.57805 34.0353 3.94153 33.5705 3.47222C33.1057 3.00291 32.4753 2.73926 31.818 2.73926C31.1607 2.73926 30.5303 3.00291 30.0655 3.47222C29.6007 3.94153 29.3396 4.57805 29.3396 5.24176C29.3396 6.24895 29.9285 7.11176 30.7762 7.51051C29.7958 12.873 28.291 16.8639 22.6907 17.7164C22.6907 17.7164 24.1988 25.3305 31.2529 25.3305C38.3069 25.3305 39.0218 17.7921 39.0218 17.7921C33.2989 18.0877 32.8155 10.8243 32.8904 7.49676Z" fill="#F19534"/>
<path id="Vector_2" d="M12.5385 7.49676C11.7078 7.09113 11.1325 6.2352 11.1325 5.24176C11.1325 4.57805 11.3936 3.94153 11.8584 3.47222C12.3232 3.00291 12.9536 2.73926 13.6109 2.73926C14.2682 2.73926 14.8987 3.00291 15.3634 3.47222C15.8282 3.94153 16.0894 4.57805 16.0894 5.24176C16.0894 6.24895 15.5004 7.11176 14.6527 7.51051C15.6332 12.873 17.1379 16.8639 22.7382 17.7164C22.7382 17.7164 21.2301 25.3305 14.1761 25.3305C7.12205 25.3305 6.41052 17.7955 6.41052 17.7955C12.13 18.0877 12.6134 10.8243 12.5385 7.49676Z" fill="#F19534"/>
<path id="Vector_3" d="M31.1575 25.3307C31.1881 25.3307 31.2187 25.3341 31.2494 25.3341C33.1933 25.3341 34.6538 24.7601 35.7501 23.9316L31.1575 25.3307Z" fill="#FFCA28"/>
<path id="Vector_4" d="M41.3062 5.79588C40.1725 5.64119 39.0899 6.73088 38.8924 8.22276C38.7699 9.15432 39.0184 10.024 39.4984 10.5843L38.6814 14.0046C38.6814 14.0046 37.4319 22.0862 31.1201 23.6812C26.0747 24.9565 24.2465 15.6306 23.8039 12.7499C24.764 12.2687 25.4278 11.2718 25.4278 10.1134C25.4278 8.48744 24.1239 7.17088 22.5136 7.17088C20.9033 7.17088 19.5994 8.48744 19.5994 10.1134C19.5994 11.2787 20.2735 12.2859 21.2506 12.7603C20.8999 15.6031 19.3543 24.6196 13.9072 23.6778C8.37837 22.7187 5.96462 13.3171 5.40629 10.7596C6.07016 10.2096 6.44124 9.24026 6.30507 8.19869C6.10761 6.70338 4.93648 5.63088 3.69045 5.79932C2.44442 5.96776 1.59672 7.31526 1.79417 8.80713C1.93716 9.89338 2.59762 10.7562 3.4249 11.0828L7.75536 38.2493C7.75536 38.2493 11.5343 41.264 22.5136 41.264C33.493 41.264 37.2719 38.2493 37.2719 38.2493L41.6126 11.0106C42.3139 10.6393 42.8654 9.80401 43.0016 8.77963C43.2025 7.28432 42.4433 5.95057 41.3062 5.79588Z" fill="#FFCA28"/>
<path id="Vector_5" d="M22.6498 34.3442C24.4811 34.3442 25.9657 32.5574 25.9657 30.3532C25.9657 28.1491 24.4811 26.3623 22.6498 26.3623C20.8185 26.3623 19.3339 28.1491 19.3339 30.3532C19.3339 32.5574 20.8185 34.3442 22.6498 34.3442Z" fill="#1B3A4B"/>
<path id="Vector_6" d="M22.6498 27.3486C22.7792 27.493 22.8949 27.7577 22.6498 28.2733C22.4047 28.7889 21.0838 29.4867 20.8421 29.6277C20.6003 29.772 20.4403 29.7067 20.3654 29.6483C20.008 29.3595 20.1442 28.7064 20.3757 28.3077C20.8727 27.4449 21.9247 26.5545 22.6498 27.3486Z" fill="#006466"/>
<path id="Vector_7" d="M22.4046 31.8417C22.0301 32.0238 20.8011 32.5773 21.2063 33.2338C21.4446 33.6223 21.9382 33.7873 22.391 33.8079C22.8438 33.8285 23.2898 33.6842 23.6915 33.4745C25.598 32.4776 25.7512 29.8582 25.3801 29.6588C24.9988 29.4526 24.7401 29.9854 24.5426 30.2123C23.9422 30.8912 23.2159 31.4448 22.4046 31.8417Z" fill="#144552"/>
<path id="Vector_8" d="M40.9146 27.0876C41.4457 24.121 39.4711 23.3785 39.4711 23.3785C39.4711 23.3785 38.1979 23.1448 37.5987 26.4826C36.9995 29.817 38.2728 30.0507 38.2728 30.0507C38.2728 30.0507 40.3801 30.0542 40.9146 27.0876Z" fill="#1B3A4B"/>
<path id="Vector_9" d="M40.0363 24.3921C40.4993 25.0177 39.9511 25.9424 39.0626 26.5577C38.8004 26.7399 38.4532 26.6711 38.4021 26.5199C38.2591 26.0868 38.3204 25.5952 38.5111 25.1793C39.0762 23.9314 39.8013 24.0758 40.0363 24.3921Z" fill="#006466"/>
<path id="Vector_10" d="M4.03427 27.1765C3.49977 24.2133 5.47776 23.4674 5.47776 23.4674C5.47776 23.4674 6.75102 23.2336 7.3502 26.5715C7.94939 29.9058 6.67612 30.1396 6.67612 30.1396C6.67612 30.1396 4.56537 30.143 4.03427 27.1765Z" fill="#1B3A4B"/>
<path id="Vector_11" d="M6.08378 24.475C6.53998 24.8187 6.35274 25.269 6.00889 25.5818C5.61738 25.9428 5.31778 26.3381 4.98415 26.7471C4.93308 26.809 4.87521 26.8778 4.7935 26.895C4.63689 26.9293 4.51093 26.7678 4.45986 26.6131C4.31347 26.18 4.34071 25.6712 4.55859 25.2725C5.1782 24.1346 5.90675 24.3409 6.08378 24.475Z" fill="#006466"/>
<path id="Vector_12" d="M34.7526 29.9608C34.5177 31.3118 33.4453 32.2502 32.3525 32.0577C31.2597 31.8652 31.1099 30.7137 31.3448 29.3627C31.5797 28.0118 32.1074 26.9771 33.1968 27.1696C34.2896 27.3621 34.9876 28.6133 34.7526 29.9608Z" fill="#4D194D"/>
<path id="Vector_13" d="M11.0713 29.9608C11.3062 31.3118 12.3786 32.2502 13.4715 32.0577C14.5643 31.8652 14.7141 30.7137 14.4792 29.3627C14.2443 28.0118 13.7166 26.9771 12.6272 27.1696C11.5377 27.3621 10.8398 28.6133 11.0713 29.9608Z" fill="#4D194D"/>
<path id="Vector_14" d="M12.6543 29.0609C12.4058 29.3428 11.7998 29.91 11.5853 29.4769C11.2925 28.8856 11.6976 27.9919 12.1606 27.6962C12.6237 27.4006 13.0015 27.6344 13.0662 27.899C13.1445 28.2359 12.8756 28.8065 12.6543 29.0609Z" fill="#FFA8A4" fill-opacity="0.1"/>
<path id="Vector_15" d="M32.0257 29.923C31.6886 29.8714 31.6512 28.6992 32.5568 27.778C32.9891 27.338 33.6087 27.8605 33.4521 28.5652C33.3023 29.2355 32.6419 30.0192 32.0257 29.923Z" fill="#FFA8A4" fill-opacity="0.1"/>
<path id="Vector_16" d="M37.8711 33.7598C35.8318 34.791 31.1541 37.5376 22.517 37.5376C13.88 37.5376 9.20225 34.791 7.16299 33.7598C7.16299 33.7598 6.43103 34.1551 6.43103 34.5676V37.7335C6.43103 38.1563 6.65232 38.5448 7.01319 38.7613C8.60647 39.7101 13.4612 41.9513 22.5204 41.9513C31.5797 41.9513 36.4344 39.7101 38.0277 38.7613C38.2048 38.6559 38.3517 38.5056 38.4538 38.3254C38.5559 38.1451 38.6097 37.9411 38.6099 37.7335V34.5676C38.6031 34.1551 37.8711 33.7598 37.8711 33.7598Z" fill="#FFCA28"/>
<path id="Vector_17" d="M14.1931 38.1013C15.1463 38.2904 15.4357 38.3729 15.371 38.9091C15.2383 39.9645 13.0696 39.7135 11.7862 39.3732C9.13409 38.6685 8.59619 37.926 8.59619 37.2626C8.59619 36.6541 9.0592 36.582 9.77413 36.8363C10.6286 37.1423 11.9496 37.6579 14.1931 38.1013Z" fill="#FFF59D"/>
<path id="Vector_18" d="M37.8711 34.4541C37.8711 34.4541 32.2299 37.6785 22.517 37.6785C12.8041 37.6785 7.16296 34.4541 7.16296 34.4541" stroke="#F19534" stroke-width="2.95679" stroke-miterlimit="10" stroke-linecap="round"/>
<path id="Vector_19" d="M9.89336 17.0401C11.7045 15.7339 12.6782 13.393 12.7633 9.6667C12.7701 9.32983 12.8654 9.23014 13.0459 9.20952C13.3353 9.17858 13.3829 9.44327 13.3795 9.63233C13.2978 13.6542 12.7905 16.167 10.7819 17.5833C10.6832 17.652 9.97847 18.0851 9.67888 17.7861C9.32141 17.4355 9.77761 17.1226 9.89336 17.0401Z" fill="#FFCA28"/>
<path id="Vector_20" d="M11.5513 5.34228C11.4934 4.72009 11.6364 3.59946 13.2535 3.09071C13.7267 2.9429 14.0195 3.17665 14.074 3.35884C14.2101 3.81259 13.8152 3.99134 13.6348 4.04978C12.3922 4.4554 12.3309 5.08103 12.0755 5.47977C11.8202 5.87852 11.5717 5.53134 11.5513 5.34228Z" fill="#FFCA28"/>
<path id="Vector_21" d="M27.3412 16.2144C28.9787 14.7466 30.0647 13.1069 30.7797 9.3738C30.8443 9.0438 30.9397 8.95442 31.1167 8.9613C31.4061 8.96817 31.4197 9.23974 31.3891 9.42536C30.7831 13.406 30.2077 14.5404 28.1889 16.7988C27.9608 17.0532 27.4059 17.2835 27.0926 17.0188C26.8101 16.7816 27.1369 16.4 27.3412 16.2144Z" fill="#FFCA28"/>
<path id="Vector_22" d="M29.7515 5.37255C29.6936 4.75036 29.8366 3.62974 31.4537 3.12099C31.9269 2.97317 32.2197 3.20692 32.2741 3.38911C32.4103 3.84286 32.0154 4.02161 31.835 4.08005C30.5923 4.48567 30.5311 5.1113 30.2757 5.51005C30.0238 5.9088 29.7719 5.56161 29.7515 5.37255Z" fill="#FFCA28"/>
<path id="Vector_23" d="M11.4662 24.6192C7.51025 22.8076 6.34593 18.0811 5.72632 16.0289C5.64462 15.7573 5.68547 15.4995 5.95442 15.417C6.22337 15.3345 6.38338 15.5098 6.46849 15.7814C6.91788 17.2698 8.66436 22.2404 12.2697 23.6533C12.5318 23.7564 12.9403 24.0073 12.7191 24.437C12.5727 24.7154 12.1029 24.9114 11.4662 24.6192Z" fill="#FFF59D"/>
<path id="Vector_24" d="M5.02832 8.46657C4.83767 8.06782 4.75937 7.68969 3.72101 7.25313C3.45887 7.14313 3.28525 6.89907 3.35674 6.62407C3.42823 6.34907 3.70059 6.14282 4.0955 6.21157C5.37898 6.435 5.65814 7.75157 5.71262 8.20875C5.76368 8.64875 5.22238 8.86532 5.02832 8.46657Z" fill="#FFF59D"/>
<path id="Vector_25" d="M33.6904 24.6192C37.6464 22.8076 38.8107 18.0811 39.4303 16.0289C39.512 15.7573 39.4711 15.4995 39.2022 15.417C38.9332 15.3345 38.7732 15.5098 38.6881 15.7814C38.2387 17.2698 36.4922 22.2404 32.8869 23.6533C32.6248 23.7564 32.2163 24.0073 32.4376 24.437C32.5839 24.7154 33.0538 24.9114 33.6904 24.6192Z" fill="#FFF59D"/>
<path id="Vector_26" d="M40.1282 8.46657C40.3189 8.06782 40.3972 7.68969 41.4355 7.25313C41.6977 7.14313 41.8713 6.89907 41.7998 6.62407C41.7283 6.34907 41.4559 6.14282 41.061 6.21157C39.7775 6.435 39.4984 7.75157 39.4439 8.20875C39.3928 8.64875 39.9376 8.86532 40.1282 8.46657Z" fill="#FFF59D"/>
<path id="Vector_27" d="M20.9271 10.1573C21.1348 9.72763 21.4991 9.13982 22.6872 8.89232C23.1434 8.79607 23.2762 8.5967 23.2353 8.2942C23.1536 7.66513 22.3774 7.70982 21.9587 7.80951C20.5628 8.13951 20.253 9.39076 20.1952 9.88576C20.1373 10.3567 20.7229 10.587 20.9271 10.1573Z" fill="#FFF59D"/>
</g>
</svg>
