<svg width="24" height="24" viewBox="0 0 24 24" fill="none" xmlns="http://www.w3.org/2000/svg">
<g id="Group">
<path id="Vector" d="M20.364 12.7073C20.5514 12.5198 20.6567 12.2655 20.6567 12.0003C20.6567 11.7352 20.5514 11.4809 20.364 11.2933L14.707 5.63634C14.6147 5.54083 14.5044 5.46465 14.3824 5.41224C14.2604 5.35983 14.1291 5.33225 13.9964 5.33109C13.8636 5.32994 13.7319 5.35524 13.609 5.40552C13.4861 5.4558 13.3744 5.53006 13.2806 5.62395C13.1867 5.71784 13.1124 5.82949 13.0621 5.95239C13.0118 6.07529 12.9865 6.20696 12.9877 6.33974C12.9889 6.47252 13.0164 6.60374 13.0689 6.72575C13.1213 6.84775 13.1974 6.9581 13.293 7.05034L17.243 11.0003H3.99995C3.73474 11.0003 3.48038 11.1057 3.29284 11.2932C3.10531 11.4808 2.99995 11.7351 2.99995 12.0003C2.99995 12.2656 3.10531 12.5199 3.29284 12.7074C3.48038 12.895 3.73474 13.0003 3.99995 13.0003H17.243L13.293 16.9503C13.1108 17.1389 13.01 17.3915 13.0123 17.6537C13.0146 17.9159 13.1197 18.1668 13.3051 18.3522C13.4905 18.5376 13.7414 18.6427 14.0036 18.645C14.2657 18.6473 14.5183 18.5465 14.707 18.3643L20.364 12.7073Z" fill="white"/>
</g>
</svg>
