<svg width="25" height="24" viewBox="0 0 25 24" fill="none" xmlns="http://www.w3.org/2000/svg">
<g id="Group">
<path id="Vector" d="M21.245 12.7073C21.4386 12.5198 21.5474 12.2655 21.5474 12.0003C21.5474 11.7352 21.4386 11.4809 21.245 11.2933L15.4031 5.63634C15.3078 5.54083 15.1938 5.46465 15.0679 5.41224C14.9419 5.35983 14.8064 5.33225 14.6692 5.33109C14.5321 5.32994 14.3961 5.35524 14.2692 5.40552C14.1423 5.4558 14.027 5.53006 13.93 5.62395C13.8331 5.71784 13.7564 5.82949 13.7045 5.95239C13.6525 6.07529 13.6264 6.20696 13.6276 6.33974C13.6288 6.47252 13.6573 6.60374 13.7114 6.72575C13.7655 6.84775 13.8442 6.9581 13.9428 7.05034L18.022 11.0003H4.34602C4.07213 11.0003 3.80946 11.1057 3.6158 11.2932C3.42213 11.4808 3.31333 11.7351 3.31333 12.0003C3.31333 12.2656 3.42213 12.5199 3.6158 12.7075C3.80946 12.895 4.07213 13.0003 4.34602 13.0003H18.022L13.9428 16.9503C13.7547 17.1389 13.6506 17.3915 13.653 17.6537C13.6553 17.9159 13.7639 18.1668 13.9554 18.3522C14.1469 18.5376 14.4059 18.6427 14.6767 18.645C14.9474 18.6473 15.2083 18.5465 15.4031 18.3643L21.245 12.7073Z" fill="#FFCFFF"/>
</g>
</svg>
